<?xml version="1.0" encoding="UTF-8" standalone="no"?>
<svg width="93px" height="99px" viewBox="0 0 93 99" version="1.1" xmlns="http://www.w3.org/2000/svg" xmlns:xlink="http://www.w3.org/1999/xlink" xmlns:sketch="http://www.bohemiancoding.com/sketch/ns">
    <!-- Generator: Sketch 3.4.4 (17249) - http://www.bohemiancoding.com/sketch -->
    <title>noun_27399_cc</title>
    <desc>Created with Sketch.</desc>
    <defs></defs>
    <g id="Page-1" stroke="none" stroke-width="1" fill="none" fill-rule="evenodd" sketch:type="MSPage">
        <g id="noun_27399_cc" sketch:type="MSLayerGroup" fill="#FFFFFF">
            <path d="M54,11 C58,28 93,31.288 93,31.288 C69,93.621 30,99 30,99 C-16,70 6,0 6,0 C26,19 54,11 54,11 L54,11 Z M34,35 C27,26 14,30 14,30 C28,41 34,35 34,35 L34,35 Z M50,38.747 C57,47.747 70,43.747 70,43.747 C56,32.747 50,38.747 50,38.747 L50,38.747 Z M37,45 C37,45 36,51 30,59 C30,59 36,56 44,66 C44,66 36,56 37,45 L37,45 Z M20,64 C20,64 22,95 55,68 C55,68 31,86 20,64 L20,64 Z" id="Shape" sketch:type="MSShapeGroup"></path>
        </g>
    </g>
</svg>