<?xml version="1.0" encoding="UTF-8" standalone="no"?>
<svg width="100px" height="98px" viewBox="0 0 100 98" version="1.1" xmlns="http://www.w3.org/2000/svg" xmlns:xlink="http://www.w3.org/1999/xlink" xmlns:sketch="http://www.bohemiancoding.com/sketch/ns">
    <!-- Generator: Sketch 3.4.4 (17249) - http://www.bohemiancoding.com/sketch -->
    <title>noun_13644</title>
    <desc>Created with Sketch.</desc>
    <defs></defs>
    <g id="Page-1" stroke="none" stroke-width="1" fill="none" fill-rule="evenodd" sketch:type="MSPage">
        <g id="noun_13644" sketch:type="MSLayerGroup" transform="translate(-1.000000, 0.000000)" fill="#FFFFFF">
            <path d="M96.84,21.245 C92.691,21.245 88.539,25.395 80.24,25.395 C71.939,25.395 67.79,21.245 63.638,21.245 C61.683,21.245 59.489,23.32 59.489,25.395 L59.489,54.445 C59.489,63.642 63.638,75.196 80.24,75.196 C96.84,75.196 100.989,63.642 100.989,54.445 L100.989,25.395 C100.989,23.32 98.797,21.245 96.84,21.245 L96.84,21.245 Z M65.715,40.958 C65.715,38.092 68.037,35.77 70.903,35.77 C73.767,35.77 76.09,38.093 76.09,40.958 C76.09,43.823 73.768,46.146 70.903,46.146 C68.037,46.146 65.715,43.823 65.715,40.958 L65.715,40.958 Z M80.24,66.896 C69.864,66.896 67.79,58.597 67.79,58.597 L92.69,58.597 C92.69,58.597 90.615,66.896 80.24,66.896 L80.24,66.896 Z M89.578,46.146 C86.713,46.146 84.39,43.823 84.39,40.958 C84.39,38.092 86.713,35.77 89.578,35.77 C92.441,35.77 94.765,38.093 94.765,40.958 C94.765,43.823 92.441,46.146 89.578,46.146 L89.578,46.146 Z" id="Shape" sketch:type="MSShapeGroup"></path>
            <path d="M47.94,54.282 C48.965,54.388 50.046,54.445 51.188,54.445 C52.677,54.445 54.037,54.375 55.34,54.188 L55.34,41.998 L38.738,41.998 C38.738,41.998 40.813,33.698 51.188,33.698 C53.265,33.698 54.079,34.005 55.34,34.476 L55.34,25.398 C55.34,21.594 56.856,18.415 59.489,17.098 C63.638,15.023 65.313,15.861 67.79,17.098 L71.939,19.173 L71.939,4.647 C71.939,2.572 69.745,0.497 67.79,0.497 C63.639,0.497 59.489,4.647 51.188,4.647 C42.889,4.647 38.738,0.497 34.589,0.497 L34.589,0.495 C32.632,0.495 30.44,2.57 30.44,4.645 L30.44,33.695 C30.44,37.385 31.132,41.445 33.006,44.995 C33.741,45.303 34.472,45.629 35.194,45.996 C40.217,48.557 44.465,51.331 47.94,54.282 L47.94,54.282 Z M41.851,15.02 C44.716,15.02 47.039,17.343 47.039,20.208 C47.039,23.073 44.716,25.396 41.851,25.396 C38.986,25.396 36.665,23.073 36.665,20.208 C36.665,17.343 38.986,15.02 41.851,15.02 L41.851,15.02 Z" id="Shape" sketch:type="MSShapeGroup"></path>
            <path d="M21.257,45.6 C12.141,45.6 4.661,50.167 2.662,54.09 C-0.21,59.731 0.456,65.398 6.095,68.269 C11.735,71.141 13.838,73.985 11.683,78.218 C8.812,83.856 10.888,90.239 16.528,93.112 C23.111,96.464 29.07,97.895 34.235,97.895 C43.453,97.895 50.147,93.341 53.367,87.017 C61.983,70.096 50.755,57.277 33.838,48.66 C29.546,46.475 25.245,45.6 21.257,45.6 L21.257,45.6 Z M14.993,61.256 C14.295,62.63 12.906,63.419 11.464,63.419 C10.861,63.419 10.248,63.281 9.673,62.987 C7.726,61.995 6.951,59.616 7.943,57.669 C8.641,56.296 10.028,55.508 11.469,55.508 C12.073,55.508 12.686,55.646 13.261,55.94 C15.209,56.932 15.985,59.311 14.993,61.256 L14.993,61.256 Z M25.784,85.396 C24.946,87.042 23.277,87.99 21.549,87.99 C20.823,87.99 20.089,87.824 19.4,87.472 C17.064,86.284 16.136,83.425 17.324,81.087 C18.162,79.441 19.83,78.494 21.557,78.494 C22.283,78.494 23.018,78.659 23.708,79.011 C26.043,80.202 26.973,83.062 25.784,85.396 L25.784,85.396 Z M29.171,57.822 C28.472,59.196 27.083,59.985 25.642,59.985 C25.037,59.985 24.424,59.847 23.85,59.553 C21.904,58.561 21.129,56.182 22.121,54.233 C22.819,52.864 24.207,52.074 25.648,52.074 C26.251,52.074 26.865,52.212 27.44,52.506 C29.387,53.496 30.161,55.879 29.171,57.822 L29.171,57.822 Z M41.807,71.362 C42.507,69.988 43.894,69.201 45.335,69.199 C45.939,69.199 46.553,69.339 47.128,69.631 C49.074,70.623 49.848,73.006 48.858,74.951 C48.159,76.322 46.771,77.112 45.33,77.112 C44.726,77.112 44.113,76.974 43.538,76.68 C41.59,75.688 40.815,73.31 41.807,71.362 L41.807,71.362 Z M36.927,57.818 C37.531,57.818 38.145,57.957 38.72,58.251 C40.666,59.239 41.44,61.622 40.448,63.567 C39.75,64.94 38.362,65.73 36.921,65.73 C36.318,65.73 35.705,65.589 35.13,65.298 C33.183,64.306 32.409,61.924 33.4,59.977 C34.099,58.606 35.486,57.818 36.927,57.818 L36.927,57.818 Z" id="Shape" sketch:type="MSShapeGroup"></path>
        </g>
    </g>
</svg>