<?xml version="1.0" encoding="UTF-8" standalone="no"?>
<svg width="48px" height="48px" viewBox="0 0 48 48" version="1.1" xmlns="http://www.w3.org/2000/svg" xmlns:xlink="http://www.w3.org/1999/xlink" xmlns:sketch="http://www.bohemiancoding.com/sketch/ns">
    <!-- Generator: Sketch 3.4.4 (17249) - http://www.bohemiancoding.com/sketch -->
    <title>noun_123437_cc (1)</title>
    <desc>Created with Sketch.</desc>
    <defs></defs>
    <g id="Page-1" stroke="none" stroke-width="1" fill="none" fill-rule="evenodd" sketch:type="MSPage">
        <g id="noun_123437_cc-(1)" sketch:type="MSLayerGroup" fill="#FFFFFF">
            <g id="Group" sketch:type="MSShapeGroup">
                <path d="M35.8,48 L1,48 C0.4,48 0,47.6 0,47 L0,23 C0,22.6 0.2,22.3 0.6,22.1 L23.4,11.8 C23.6,11.7 23.9,11.7 24.1,11.8 L36.1,16 C36.5,16.1 36.8,16.5 36.8,16.9 L36.8,47 C36.8,47.6 36.4,48 35.8,48 L35.8,48 Z M2,46 L34.8,46 L34.8,17.6 L23.8,13.8 L2,23.6 L2,46 L2,46 Z" id="Shape"></path>
                <path d="M23.7,48 C23.1,48 22.7,47.6 22.7,47 L22.7,13.5 C22.7,12.9 23.1,12.5 23.7,12.5 C24.3,12.5 24.7,12.9 24.7,13.5 L24.7,47 C24.7,47.6 24.3,48 23.7,48 L23.7,48 Z" id="Shape"></path>
                <g transform="translate(3.000000, 21.000000)" id="Shape">
                    <path d="M1.5,7 C1.1,7 0.7,6.7 0.5,6.3 C0.3,5.8 0.6,5.2 1.2,5 L15.4,0.6 C15.9,0.4 16.5,0.7 16.7,1.3 C16.9,1.8 16.6,2.4 16,2.6 L1.8,7 L1.5,7 L1.5,7 Z"></path>
                    <path d="M1.5,12.3 C1,12.3 0.6,12 0.5,11.5 C0.4,11 0.7,10.4 1.3,10.3 L15.5,7.3 C16,7.2 16.6,7.5 16.7,8.1 C16.8,8.6 16.5,9.2 15.9,9.3 L1.7,12.3 L1.5,12.3 L1.5,12.3 Z"></path>
                    <path d="M1.5,17.5 C1,17.5 0.6,17.1 0.5,16.6 C0.4,16.1 0.8,15.6 1.4,15.5 L15.6,14 C16.1,13.9 16.6,14.3 16.7,14.9 C16.8,15.4 16.4,15.9 15.8,16 L1.6,17.5 L1.5,17.5 L1.5,17.5 Z"></path>
                    <path d="M15.7,22.8 L1.5,22.8 C0.9,22.8 0.5,22.4 0.5,21.8 C0.5,21.2 0.9,20.8 1.5,20.8 L15.7,20.8 C16.3,20.8 16.7,21.2 16.7,21.8 C16.7,22.4 16.3,22.8 15.7,22.8 L15.7,22.8 Z"></path>
                </g>
                <path d="M47,48 L31.7,48 C31.1,48 30.7,47.6 30.7,47 C30.7,46.4 31.1,46 31.7,46 L46,46 L46,6.5 L32.4,2.1 L19.4,7.9 L19.4,14.6 C19.4,15.2 19,15.6 18.4,15.6 C17.8,15.6 17.4,15.2 17.4,14.6 L17.4,7.2 C17.4,6.8 17.6,6.4 18,6.3 L31.9,0.1 C32.1,0 32.4,0 32.6,0 L47.3,4.8 C47.7,5 48,5.4 48,5.8 L48,47 C48,47.6 47.6,48 47,48 L47,48 Z" id="Shape"></path>
                <path d="M41,13.7 C40.4,13.7 40,13.3 40,12.7 L40,8.8 C40,8.2 40.4,7.8 41,7.8 C41.6,7.8 42,8.2 42,8.8 L42,12.7 C42,13.3 41.6,13.7 41,13.7 L41,13.7 Z" id="Shape"></path>
                <path d="M41,20.7 C40.4,20.7 40,20.3 40,19.7 L40,15.8 C40,15.2 40.4,14.8 41,14.8 C41.6,14.8 42,15.2 42,15.8 L42,19.7 C42,20.3 41.6,20.7 41,20.7 L41,20.7 Z" id="Shape"></path>
                <path d="M41,27.8 C40.4,27.8 40,27.4 40,26.8 L40,22.8 C40,22.2 40.4,21.8 41,21.8 C41.6,21.8 42,22.2 42,22.8 L42,26.8 C42,27.4 41.6,27.8 41,27.8 L41,27.8 Z" id="Shape"></path>
                <path d="M41,34.8 C40.4,34.8 40,34.4 40,33.8 L40,29.9 C40,29.3 40.4,28.9 41,28.9 C41.6,28.9 42,29.3 42,29.9 L42,33.8 C42,34.4 41.6,34.8 41,34.8 L41,34.8 Z" id="Shape"></path>
                <path d="M41,41.8 C40.4,41.8 40,41.4 40,40.8 L40,36.9 C40,36.3 40.4,35.9 41,35.9 C41.6,35.9 42,36.3 42,36.9 L42,40.8 C42,41.4 41.6,41.8 41,41.8 L41,41.8 Z" id="Shape"></path>
            </g>
        </g>
    </g>
</svg>