<?xml version="1.0" encoding="UTF-8" standalone="no"?>
<svg width="20px" height="20px" viewBox="0 0 20 20" version="1.1" xmlns="http://www.w3.org/2000/svg" xmlns:xlink="http://www.w3.org/1999/xlink" xmlns:sketch="http://www.bohemiancoding.com/sketch/ns">
    <!-- Generator: Sketch 3.4.4 (17249) - http://www.bohemiancoding.com/sketch -->
    <title>noun_61776</title>
    <desc>Created with Sketch.</desc>
    <defs></defs>
    <g id="Page-1" stroke="none" stroke-width="1" fill="none" fill-rule="evenodd" sketch:type="MSPage">
        <g id="noun_61776" sketch:type="MSLayerGroup" transform="translate(0.000000, -1.000000)">
            <path d="M5,8.7 L20,6.7 L20,3 C20,1.8 18.9,0.9 17.7,1 L6.7,2.5 C5.7,2.6 5,3.5 5,4.5 L5,8.7 L5,8.7 Z" id="Shape" fill="#FFFFFF" sketch:type="MSShapeGroup"></path>
            <path d="M7,17 C7,18.7 5.4,20.4 3.5,20.9 C1.6,21.4 0,20.4 0,18.7 C0,17 1.6,15.3 3.5,14.8 C5.4,14.4 7,15.3 7,17 L7,17 Z" id="Shape" fill="#FFFFFF" sketch:type="MSShapeGroup"></path>
            <path d="M6,17 L6,5" id="Shape" stroke="#FFFFFF" stroke-width="2" sketch:type="MSShapeGroup"></path>
            <path d="M20,16 C20,17.7 18.4,19.4 16.5,19.9 C14.6,20.4 13,19.4 13,17.7 C13,16 14.6,14.3 16.5,13.8 C18.4,13.3 20,14.3 20,16 L20,16 Z" id="Shape" fill="#FFFFFF" sketch:type="MSShapeGroup"></path>
            <path d="M19,16 L19,3" id="Shape" stroke="#FFFFFF" stroke-width="2" sketch:type="MSShapeGroup"></path>
        </g>
    </g>
</svg>