<?xml version="1.0" encoding="UTF-8" standalone="no"?>
<svg width="75px" height="75px" viewBox="0 0 75 75" version="1.1" xmlns="http://www.w3.org/2000/svg" xmlns:xlink="http://www.w3.org/1999/xlink" xmlns:sketch="http://www.bohemiancoding.com/sketch/ns">
    <!-- Generator: Sketch 3.5.2 (25235) - http://www.bohemiancoding.com/sketch -->
    <title>noun_85432_cc</title>
    <desc>Created with Sketch.</desc>
    <defs></defs>
    <g id="Page-1" stroke="none" stroke-width="1" fill="none" fill-rule="evenodd" sketch:type="MSPage">
        <g id="noun_85432_cc" sketch:type="MSLayerGroup" fill-opacity="0.6" fill="#404D57">
            <g id="Group" sketch:type="MSShapeGroup">
                <path d="M59.674,10.398 L59.674,0.543 L54.746,0.543 L54.746,10.398 L39.964,10.398 L39.964,0.543 L35.036,0.543 L35.036,10.398 L20.254,10.398 L20.254,0.543 L15.326,0.543 L15.326,10.398 L0.543,10.398 L0.543,74.457 L74.457,74.457 L74.457,10.398 L59.674,10.398 L59.674,10.398 Z M69.529,69.529 L5.471,69.529 L5.471,15.326 L15.326,15.326 L20.254,15.326 L35.036,15.326 L39.964,15.326 L54.746,15.326 L59.674,15.326 L69.529,15.326 L69.529,69.529 L69.529,69.529 Z" id="Shape"></path>
                <rect id="Rectangle-path" x="15.326" y="25.181" width="4.928" height="4.927"></rect>
                <rect id="Rectangle-path" x="25.181" y="25.181" width="4.927" height="4.927"></rect>
                <rect id="Rectangle-path" x="35.036" y="25.181" width="4.928" height="4.927"></rect>
                <rect id="Rectangle-path" x="44.892" y="25.181" width="4.927" height="4.927"></rect>
                <rect id="Rectangle-path" x="54.746" y="25.181" width="4.928" height="4.927"></rect>
                <rect id="Rectangle-path" x="15.326" y="35.036" width="4.928" height="4.928"></rect>
                <rect id="Rectangle-path" x="25.181" y="35.036" width="4.927" height="4.928"></rect>
                <rect id="Rectangle-path" x="35.036" y="35.036" width="4.928" height="4.928"></rect>
                <rect id="Rectangle-path" x="44.892" y="35.036" width="4.927" height="4.928"></rect>
                <rect id="Rectangle-path" x="54.746" y="35.036" width="4.928" height="4.928"></rect>
                <rect id="Rectangle-path" x="15.326" y="44.892" width="4.928" height="4.928"></rect>
                <rect id="Rectangle-path" x="25.181" y="44.892" width="4.927" height="4.928"></rect>
                <rect id="Rectangle-path" x="35.036" y="44.892" width="4.928" height="4.928"></rect>
                <rect id="Rectangle-path" x="44.892" y="44.892" width="4.927" height="4.928"></rect>
                <rect id="Rectangle-path" x="54.746" y="44.892" width="4.928" height="4.928"></rect>
                <rect id="Rectangle-path" x="15.326" y="54.746" width="4.928" height="4.928"></rect>
                <rect id="Rectangle-path" x="25.181" y="54.746" width="4.927" height="4.928"></rect>
                <rect id="Rectangle-path" x="35.036" y="54.746" width="4.928" height="4.928"></rect>
            </g>
        </g>
    </g>
</svg>