<?xml version="1.0" encoding="UTF-8" standalone="no"?>
<svg width="87px" height="87px" viewBox="0 0 87 87" version="1.1" xmlns="http://www.w3.org/2000/svg" xmlns:xlink="http://www.w3.org/1999/xlink" xmlns:sketch="http://www.bohemiancoding.com/sketch/ns">
    <!-- Generator: Sketch 3.4.4 (17249) - http://www.bohemiancoding.com/sketch -->
    <title>Group</title>
    <desc>Created with Sketch.</desc>
    <defs></defs>
    <g id="Page-1" stroke="none" stroke-width="1" fill="none" fill-rule="evenodd" sketch:type="MSPage">
        <g id="Group" sketch:type="MSLayerGroup" fill="#7B9499">
            <path d="M34.9,0.016 L52.1,0.016 C53.682,0.016 54.967,1.3 54.967,2.883 L54.967,20.083 C54.967,21.666 53.682,22.949 52.1,22.949 L34.9,22.949 C33.316,22.949 32.033,21.666 32.033,20.083 L32.033,2.883 C32.033,1.3 33.315,0.016 34.9,0.016 L34.9,0.016 Z" id="Shape" sketch:type="MSShapeGroup"></path>
            <path d="M66.434,0.016 L83.634,0.016 C85.215,0.016 86.5,1.3 86.5,2.883 L86.5,20.083 C86.5,21.666 85.215,22.949 83.634,22.949 L66.434,22.949 C64.849,22.949 63.567,21.666 63.567,20.083 L63.567,2.883 C63.566,1.3 64.849,0.016 66.434,0.016 L66.434,0.016 Z" id="Shape" sketch:type="MSShapeGroup"></path>
            <path d="M3.367,0.016 L20.567,0.016 C22.149,0.016 23.434,1.3 23.434,2.883 L23.434,20.083 C23.434,21.666 22.149,22.949 20.567,22.949 L3.367,22.949 C1.783,22.949 0.5,21.666 0.5,20.083 L0.5,2.883 C0.5,1.3 1.782,0.016 3.367,0.016 L3.367,0.016 Z" id="Shape" sketch:type="MSShapeGroup"></path>
            <path d="M34.9,31.549 L52.1,31.549 C53.682,31.549 54.967,32.831 54.967,34.416 L54.967,51.615 C54.967,53.2 53.682,54.482 52.1,54.482 L34.9,54.482 C33.316,54.482 32.033,53.2 32.033,51.615 L32.033,34.416 C32.033,32.832 33.315,31.549 34.9,31.549 L34.9,31.549 Z" id="Shape" sketch:type="MSShapeGroup"></path>
            <path d="M66.434,31.549 L83.634,31.549 C85.215,31.549 86.5,32.831 86.5,34.416 L86.5,51.615 C86.5,53.2 85.215,54.482 83.634,54.482 L66.434,54.482 C64.849,54.482 63.567,53.2 63.567,51.615 L63.567,34.416 C63.566,32.832 64.849,31.549 66.434,31.549 L66.434,31.549 Z" id="Shape" sketch:type="MSShapeGroup"></path>
            <path d="M3.367,31.549 L20.567,31.549 C22.149,31.549 23.434,32.831 23.434,34.416 L23.434,51.615 C23.434,53.2 22.149,54.482 20.567,54.482 L3.367,54.482 C1.783,54.482 0.5,53.2 0.5,51.615 L0.5,34.416 C0.5,32.832 1.782,31.549 3.367,31.549 L3.367,31.549 Z" id="Shape" sketch:type="MSShapeGroup"></path>
            <path d="M34.9,63.082 L52.1,63.082 C53.682,63.082 54.967,64.364 54.967,65.949 L54.967,83.148 C54.967,84.733 53.682,86.015 52.1,86.015 L34.9,86.015 C33.316,86.015 32.033,84.733 32.033,83.148 L32.033,65.949 C32.033,64.364 33.315,63.082 34.9,63.082 L34.9,63.082 Z" id="Shape" sketch:type="MSShapeGroup"></path>
            <path d="M66.434,63.082 L83.634,63.082 C85.215,63.082 86.5,64.364 86.5,65.949 L86.5,83.148 C86.5,84.733 85.215,86.015 83.634,86.015 L66.434,86.015 C64.849,86.015 63.567,84.733 63.567,83.148 L63.567,65.949 C63.566,64.364 64.849,63.082 66.434,63.082 L66.434,63.082 Z" id="Shape" sketch:type="MSShapeGroup"></path>
            <path d="M3.367,63.082 L20.567,63.082 C22.149,63.082 23.434,64.364 23.434,65.949 L23.434,83.148 C23.434,84.733 22.149,86.015 20.567,86.015 L3.367,86.015 C1.783,86.015 0.5,84.733 0.5,83.148 L0.5,65.949 C0.5,64.364 1.782,63.082 3.367,63.082 L3.367,63.082 Z" id="Shape" sketch:type="MSShapeGroup"></path>
        </g>
    </g>
</svg>